<svg width="33" height="32" viewBox="0 0 33 32" fill="none" xmlns="http://www.w3.org/2000/svg">
<path d="M18.3944 0.0921185C16.483 -0.385723 14.7085 1.0602 14.5794 2.9317C14.4342 5.03489 14.1206 6.96322 13.7219 8.11352C13.4729 8.8318 12.7646 10.1374 11.6443 11.3894C10.5286 12.6362 9.07844 13.7468 7.38061 14.2099C6.03774 14.5762 4.66675 15.7398 4.66675 17.4403V25.4423C4.66675 27.1312 6.0314 28.37 7.56259 28.5324C9.70157 28.7592 10.6903 29.3628 11.6986 29.9783L11.7938 30.0364C12.3394 30.3688 12.9503 30.7349 13.7354 31.0053C14.5286 31.2784 15.4575 31.441 16.6667 31.441H23.6667C25.5409 31.441 26.8647 30.4852 27.535 29.3121C27.8631 28.738 28.0417 28.0997 28.0417 27.4879C28.0417 27.1832 27.9962 26.8636 27.8881 26.5589C28.291 26.0343 28.6498 25.4042 28.8654 24.7572C29.0849 24.0988 29.2085 23.2342 28.872 22.4607C29.0103 22.1994 29.1137 21.9228 29.1908 21.6532C29.3451 21.1129 29.4167 20.5188 29.4167 19.941C29.4167 19.3632 29.3451 18.7691 29.1908 18.2288C29.1218 17.9873 29.0316 17.7402 28.9141 17.5035C29.7033 16.3607 29.751 15.1017 29.3819 14.0369C28.9715 12.8528 28.0195 11.8378 26.983 11.4923C25.2887 10.9276 23.3762 10.9406 21.9512 11.0701C21.6348 11.0989 21.3373 11.1339 21.0656 11.1711C22.0065 7.17543 21.3808 3.78404 20.9399 2.15203C20.6652 1.13504 19.8421 0.454043 18.9172 0.222828L18.3944 0.0921185ZM23.6667 29.441H16.6667C15.6454 29.441 14.9406 29.305 14.3866 29.1142C13.8245 28.9207 13.3744 28.6575 12.8346 28.3285L12.7548 28.2798C11.6451 27.6028 10.358 26.8176 7.77349 26.5435C7.10785 26.4729 6.66675 25.9626 6.66675 25.4423V17.4403C6.66675 16.9316 7.11854 16.3545 7.90694 16.1394C10.0977 15.5418 11.8604 14.147 13.1347 12.723C14.4045 11.3041 15.2634 9.77324 15.6116 8.76844C16.0968 7.36844 16.4254 5.23254 16.5746 3.06935C16.6246 2.34473 17.2961 1.87907 17.9093 2.03238L18.4321 2.16309C18.7533 2.24339 18.9489 2.45058 19.0091 2.67356C19.4498 4.3051 20.1053 7.96315 18.7181 12.1247C18.6026 12.471 18.685 12.8526 18.933 13.1204C19.1809 13.3881 19.5553 13.4995 19.9093 13.4111L19.9145 13.4098L19.9419 13.4033C19.9674 13.3973 20.007 13.3881 20.0597 13.3765C20.165 13.3533 20.3219 13.3204 20.5207 13.2836C20.9192 13.2098 21.4818 13.121 22.1323 13.0619C23.4573 12.9414 25.0448 12.9544 26.3505 13.3896C26.7015 13.5066 27.2495 13.9916 27.4922 14.6919C27.7053 15.3066 27.6639 16.0296 26.9596 16.7339L26.2525 17.441L26.9596 18.1481C27.0447 18.2332 27.1682 18.43 27.2677 18.7782C27.3633 19.1129 27.4167 19.5187 27.4167 19.941C27.4167 20.3632 27.3633 20.7691 27.2677 21.1037C27.1682 21.4519 27.0447 21.6488 26.9596 21.7339L26.2525 22.441L26.9596 23.1481C27.0537 23.2421 27.176 23.5009 26.9681 24.1247C26.7727 24.7108 26.363 25.3305 25.9596 25.7339L25.2525 26.441L25.9596 27.1481C25.9701 27.1586 26.0417 27.2473 26.0417 27.4878C26.0417 27.7197 25.9704 28.0189 25.7985 28.3198C25.4688 28.8967 24.7926 29.441 23.6667 29.441Z" fill="url(#paint0_linear_1_78)"/>
<defs>
<linearGradient id="paint0_linear_1_78" x1="4.66675" y1="15.7205" x2="29.6043" y2="15.7205" gradientUnits="userSpaceOnUse">
<stop stop-color="#3C8DDE"/>
<stop offset="1" stop-color="#4FCFF5"/>
</linearGradient>
</defs>
</svg>
