<svg width="33" height="29" viewBox="0 0 33 29" fill="none" xmlns="http://www.w3.org/2000/svg">
<path d="M4.5 0.5C2.29086 0.5 0.5 2.29086 0.5 4.5V20.5L0.500052 20.5206C0.51112 22.7202 2.29772 24.5 4.5 24.5H15.5C16.0523 24.5 16.5 24.0523 16.5 23.5C16.5 22.9477 16.0523 22.5 15.5 22.5H4.5C3.5743 22.5 2.79549 21.8711 2.56753 21.0172L13.8483 14.0752L16.5 15.6662L30.5 7.26619V13.5C30.5 14.0523 30.9477 14.5 31.5 14.5C32.0523 14.5 32.5 14.0523 32.5 13.5V4.5C32.5 2.29086 30.7091 0.5 28.5 0.5H4.5ZM11.9162 12.9159L2.5 18.7104V7.26619L11.9162 12.9159ZM2.5 4.93381V4.5C2.5 3.39543 3.39543 2.5 4.5 2.5H28.5C29.6046 2.5 30.5 3.39543 30.5 4.5V4.93381L16.5 13.3338L2.5 4.93381Z" fill="white"/>
<path d="M28.9934 25.0372C31.0134 25.0372 32.1677 23.3232 32.1677 20.9884V20.5687C32.1677 17.3595 29.7804 14.5 25.5394 14.5H25.4694C21.342 14.5 18.5 17.2196 18.5 21.3645V21.7929C18.5 26.139 21.377 28.5 25.2158 28.5H25.3032C26.4925 28.5 27.3407 28.3513 27.778 28.1502V26.6899C27.2883 26.9085 26.4313 27.0484 25.4169 27.0484H25.3295C22.6624 27.0484 20.1877 25.4744 20.1877 21.7405V21.4257C20.1877 18.1115 22.3039 15.9778 25.4694 15.9778H25.5481C28.6174 15.9778 30.515 18.0765 30.515 20.6299V20.866C30.515 22.8161 29.8679 23.6468 29.2383 23.6468C28.7748 23.6468 28.4163 23.3495 28.4163 22.8073V18.4263H26.6062V19.5631H26.545C26.3788 18.9685 25.8104 18.3039 24.6387 18.3039C23.0821 18.3039 22.1202 19.4144 22.1202 21.1021V22.1602C22.1202 23.9441 23.0996 25.0284 24.6387 25.0284C25.5831 25.0284 26.4313 24.5737 26.6674 23.743H26.7548C26.9909 24.5824 27.9878 25.0372 28.9934 25.0372ZM24.0878 21.8629V21.4082C24.0878 20.3151 24.5425 19.8254 25.2333 19.8254C25.8279 19.8254 26.3788 20.2102 26.3788 21.242V21.9766C26.3788 23.1221 25.8716 23.4631 25.2508 23.4631C24.5425 23.4631 24.0878 23.0347 24.0878 21.8629Z" fill="white"/>
</svg>
