<svg width="36" height="36" viewBox="0 0 36 36" fill="none" xmlns="http://www.w3.org/2000/svg">
<path d="M28 36C32.4183 36 36 32.4183 36 28C36 23.5817 32.4183 20 28 20C23.5817 20 20 23.5817 20 28C20 32.4183 23.5817 36 28 36ZM31.8371 25.7309L28.7851 30.8176C28.2113 31.7739 26.8916 31.9364 26.1029 31.1478L24.3347 29.3796C23.8884 28.9332 23.8884 28.2096 24.3347 27.7633C24.781 27.317 25.5047 27.317 25.951 27.7633L27.2017 29.014L29.8772 24.5549C30.2019 24.0136 30.9039 23.8381 31.4451 24.1629C31.9864 24.4876 32.1619 25.1896 31.8371 25.7309Z" fill="url(#paint0_linear_1_64)"/>
<path d="M24.5714 10.8571C24.5714 14.6442 21.5014 17.7143 17.7143 17.7143C13.9272 17.7143 10.8571 14.6442 10.8571 10.8571C10.8571 7.07005 13.9272 4 17.7143 4C21.5014 4 24.5714 7.07005 24.5714 10.8571ZM17.7143 15.4286C20.239 15.4286 22.2857 13.3819 22.2857 10.8571C22.2857 8.33241 20.239 6.28571 17.7143 6.28571C15.1896 6.28571 13.1429 8.33241 13.1429 10.8571C13.1429 13.3819 15.1896 15.4286 17.7143 15.4286Z" fill="url(#paint1_linear_1_64)"/>
<path d="M18.2996 31.4286C18.0415 30.6983 17.8635 29.9303 17.7762 29.1349H6.28571C6.28897 28.5708 6.63715 26.881 8.18765 25.3305C9.67852 23.8397 12.482 22.2857 17.7143 22.2857C18.3097 22.2857 18.8737 22.3058 19.4078 22.3437C19.9225 21.5635 20.5405 20.8575 21.2425 20.2453C20.1762 20.0872 19.0034 20 17.7143 20C6.28571 20 4 26.8571 4 29.1429C4 31.4286 6.28571 31.4286 6.28571 31.4286H18.2996Z" fill="url(#paint2_linear_1_64)"/>
<defs>
<linearGradient id="paint0_linear_1_64" x1="4" y1="20" x2="36" y2="20" gradientUnits="userSpaceOnUse">
<stop stop-color="#3C8DDE"/>
<stop offset="1" stop-color="#4FCFF5"/>
</linearGradient>
<linearGradient id="paint1_linear_1_64" x1="4" y1="20" x2="36" y2="20" gradientUnits="userSpaceOnUse">
<stop stop-color="#3C8DDE"/>
<stop offset="1" stop-color="#4FCFF5"/>
</linearGradient>
<linearGradient id="paint2_linear_1_64" x1="4" y1="20" x2="36" y2="20" gradientUnits="userSpaceOnUse">
<stop stop-color="#3C8DDE"/>
<stop offset="1" stop-color="#4FCFF5"/>
</linearGradient>
</defs>
</svg>
