<svg width="33" height="32" viewBox="0 0 33 32" fill="none" xmlns="http://www.w3.org/2000/svg">
<path d="M11.0093 3.18168C8.83726 3.77044 6.63765 4.46649 5.33581 4.8913C4.97763 5.00817 4.72612 5.31833 4.67889 5.67277C3.57114 13.9858 6.13065 20.0533 9.18466 24.0486C10.718 26.0545 12.377 27.5381 13.7601 28.5134C14.4522 29.0015 15.064 29.3544 15.5448 29.5807C15.7855 29.694 15.9823 29.7704 16.1319 29.8167C16.255 29.8549 16.3183 29.8639 16.3334 29.866C16.3484 29.8639 16.4118 29.8549 16.5349 29.8167C16.6844 29.7704 16.8813 29.694 17.122 29.5807C17.6027 29.3544 18.2146 29.0015 18.9067 28.5134C20.2897 27.5381 21.9488 26.0545 23.4821 24.0486C26.5361 20.0533 29.0956 13.9858 27.9879 5.67277C27.9406 5.31833 27.6891 5.00817 27.3309 4.89129C26.0291 4.46649 23.8295 3.77044 21.6575 3.18168C19.4368 2.5797 17.3951 2.13333 16.3334 2.13333C15.2717 2.13333 13.23 2.5797 11.0093 3.18168ZM10.4767 1.11931C12.6481 0.530686 14.9544 0 16.3334 0C17.7124 0 20.0186 0.530686 22.1901 1.1193C24.4103 1.72113 26.6471 2.42922 27.9628 2.85857C29.0609 3.21687 29.8914 4.18718 30.0509 5.38419C31.2442 14.3388 28.4773 20.9737 25.1214 25.364C23.4497 27.5508 21.6329 29.1807 20.0872 30.2707C19.3149 30.8154 18.5991 31.2331 17.9913 31.5192C17.4297 31.7836 16.8288 32 16.3334 32C15.838 32 15.2371 31.7836 14.6755 31.5192C14.0676 31.2331 13.3519 30.8154 12.5796 30.2707C11.0338 29.1807 9.21703 27.5508 7.54538 25.364C4.18946 20.9737 1.42259 14.3388 2.61584 5.38419C2.77534 4.18718 3.60588 3.21687 4.70393 2.85857C6.0197 2.42922 8.2565 1.72113 10.4767 1.11931Z" fill="url(#paint0_linear_1_74)"/>
<path d="M22.0405 10.2929C22.431 10.6834 22.431 11.3166 22.0405 11.7071L16.0405 17.7071C15.8529 17.8946 15.5986 18 15.3334 18C15.0682 18 14.8138 17.8946 14.6263 17.7071L11.6263 14.7071C11.2357 14.3166 11.2357 13.6834 11.6263 13.2929C12.0168 12.9024 12.65 12.9024 13.0405 13.2929L15.3334 15.5858L20.6263 10.2929C21.0168 9.90237 21.65 9.90237 22.0405 10.2929Z" fill="url(#paint1_linear_1_74)"/>
<defs>
<linearGradient id="paint0_linear_1_74" x1="2.33337" y1="16" x2="30.3334" y2="16" gradientUnits="userSpaceOnUse">
<stop stop-color="#3C8DDE"/>
<stop offset="1" stop-color="#4FCFF5"/>
</linearGradient>
<linearGradient id="paint1_linear_1_74" x1="11.3334" y1="14" x2="22.3334" y2="14" gradientUnits="userSpaceOnUse">
<stop stop-color="#3C8DDE"/>
<stop offset="1" stop-color="#4FCFF5"/>
</linearGradient>
</defs>
</svg>
