<svg width="26" height="24" viewBox="0 0 26 24" fill="none" xmlns="http://www.w3.org/2000/svg">
<path d="M25.741 5.17856C25.741 5.17856 25.4871 2.82588 24.7051 1.79284C23.7148 0.433213 22.6078 0.426548 22.1 0.34657C18.4641 -1.90682e-07 13.0051 0 13.0051 0H12.9949C12.9949 0 7.53594 -1.90682e-07 3.9 0.34657C3.39219 0.426548 2.28516 0.433213 1.29492 1.79284C0.512891 2.82588 0.264062 5.17856 0.264062 5.17856C0.264062 5.17856 0 7.94446 0 10.7037V13.2896C0 16.0489 0.258984 18.8148 0.258984 18.8148C0.258984 18.8148 0.512891 21.1675 1.28984 22.2005C2.28008 23.5601 3.58008 23.5135 4.15898 23.6601C6.24102 23.92 13 24 13 24C13 24 18.4641 23.9867 22.1 23.6468C22.6078 23.5668 23.7148 23.5601 24.7051 22.2005C25.4871 21.1675 25.741 18.8148 25.741 18.8148C25.741 18.8148 26 16.0555 26 13.2896V10.7037C26 7.94446 25.741 5.17856 25.741 5.17856ZM10.3137 16.4288V6.8381L17.3367 11.6501L10.3137 16.4288Z" fill="white"/>
</svg>
